<?xml version="1.0" encoding="UTF-8"?>
<svg xmlns="http://www.w3.org/2000/svg" xmlns:xlink="http://www.w3.org/1999/xlink" width="72px" height="73px" viewBox="0 0 72 72" version="1.1">
<g id="surface1">
<path style=" stroke:none;fill-rule:nonzero;fill:rgb(93.72549%,1.568627%,4.313725%);fill-opacity:1;" d="M 14.996094 52.800781 C 14.234375 52.800781 13.546875 52.972656 12.925781 53.320312 C 12.308594 53.667969 11.816406 54.148438 11.449219 54.761719 C 11.085938 55.375 10.90625 56.078125 10.90625 56.878906 C 10.90625 57.667969 11.085938 58.367188 11.449219 58.980469 C 11.816406 59.59375 12.308594 60.078125 12.933594 60.433594 C 13.5625 60.785156 14.261719 60.960938 15.042969 60.960938 C 15.488281 60.960938 15.898438 60.894531 16.285156 60.761719 C 16.667969 60.625 17.003906 60.460938 17.289062 60.253906 C 17.523438 60.078125 17.714844 59.90625 17.867188 59.726562 L 17.867188 60.054688 C 17.867188 60.273438 17.949219 60.453125 18.105469 60.601562 C 18.265625 60.746094 18.46875 60.8125 18.71875 60.8125 C 18.953125 60.8125 19.15625 60.738281 19.324219 60.601562 C 19.488281 60.453125 19.574219 60.273438 19.574219 60.054688 L 19.574219 57.320312 C 19.582031 52.632812 14.996094 52.800781 14.996094 52.800781 Z M 17.597656 58.261719 C 17.371094 58.671875 17.058594 59 16.65625 59.234375 C 16.25 59.472656 15.785156 59.59375 15.253906 59.59375 C 14.71875 59.59375 14.25 59.472656 13.851562 59.234375 C 13.445312 58.992188 13.128906 58.667969 12.90625 58.261719 C 12.675781 57.847656 12.5625 57.386719 12.5625 56.878906 C 12.5625 56.367188 12.675781 55.898438 12.90625 55.492188 C 13.136719 55.085938 13.453125 54.765625 13.863281 54.527344 C 14.273438 54.285156 14.742188 54.167969 15.257812 54.167969 C 15.792969 54.167969 16.265625 54.285156 16.660156 54.527344 C 17.066406 54.765625 17.382812 55.085938 17.605469 55.492188 C 17.835938 55.898438 17.949219 56.359375 17.949219 56.878906 C 17.941406 57.386719 17.828125 57.847656 17.597656 58.261719 Z M 17.597656 58.261719 "/>
<path style=" stroke:none;fill-rule:nonzero;fill:rgb(93.72549%,1.568627%,4.313725%);fill-opacity:1;" d="M 28.035156 53.367188 C 27.414062 53.019531 26.707031 52.847656 25.910156 52.847656 C 25.527344 52.847656 25.15625 52.898438 24.792969 53.011719 C 24.433594 53.121094 24.117188 53.265625 23.839844 53.445312 C 23.566406 53.625 23.335938 53.8125 23.152344 54.019531 C 23.132812 54.046875 23.121094 54.066406 23.101562 54.09375 L 23.101562 53.71875 C 23.101562 53.511719 23.019531 53.332031 22.851562 53.1875 C 22.6875 53.039062 22.488281 52.960938 22.242188 52.960938 C 21.996094 52.960938 21.792969 53.035156 21.628906 53.1875 C 21.46875 53.332031 21.394531 53.511719 21.394531 53.71875 L 21.394531 63.046875 C 21.394531 63.265625 21.476562 63.445312 21.628906 63.59375 C 21.792969 63.738281 21.996094 63.808594 22.242188 63.808594 C 22.480469 63.808594 22.683594 63.734375 22.851562 63.59375 C 23.011719 63.445312 23.101562 63.265625 23.101562 63.046875 L 23.101562 59.808594 C 23.269531 59.988281 23.472656 60.152344 23.714844 60.3125 C 24.011719 60.507812 24.347656 60.660156 24.738281 60.78125 C 25.121094 60.898438 25.535156 60.960938 25.964844 60.960938 C 26.742188 60.960938 27.429688 60.785156 28.042969 60.441406 C 28.65625 60.09375 29.140625 59.613281 29.503906 59 C 29.867188 58.386719 30.050781 57.6875 30.050781 56.894531 C 30.050781 56.101562 29.867188 55.398438 29.503906 54.800781 C 29.148438 54.1875 28.65625 53.714844 28.035156 53.367188 Z M 28.070312 58.261719 C 27.832031 58.671875 27.523438 58.992188 27.125 59.226562 C 26.726562 59.460938 26.261719 59.578125 25.730469 59.578125 C 25.183594 59.578125 24.710938 59.464844 24.308594 59.226562 C 23.902344 58.992188 23.585938 58.671875 23.363281 58.261719 C 23.132812 57.847656 23.019531 57.386719 23.019531 56.878906 C 23.019531 56.367188 23.132812 55.90625 23.363281 55.511719 C 23.59375 55.113281 23.902344 54.800781 24.308594 54.566406 C 24.710938 54.332031 25.183594 54.214844 25.730469 54.214844 C 26.261719 54.214844 26.726562 54.332031 27.125 54.566406 C 27.523438 54.800781 27.839844 55.121094 28.070312 55.519531 C 28.304688 55.921875 28.417969 56.375 28.417969 56.878906 C 28.417969 57.386719 28.304688 57.847656 28.070312 58.261719 Z M 28.070312 58.261719 "/>
<path style=" stroke:none;fill-rule:nonzero;fill:rgb(93.72549%,1.568627%,4.313725%);fill-opacity:1;" d="M 37.984375 53.367188 C 37.363281 53.019531 36.65625 52.847656 35.863281 52.847656 C 35.476562 52.847656 35.105469 52.898438 34.742188 53.011719 C 34.386719 53.121094 34.070312 53.265625 33.792969 53.445312 C 33.515625 53.625 33.285156 53.8125 33.105469 54.019531 C 33.085938 54.046875 33.070312 54.066406 33.050781 54.09375 L 33.050781 53.71875 C 33.050781 53.511719 32.96875 53.332031 32.800781 53.1875 C 32.640625 53.039062 32.4375 52.960938 32.195312 52.960938 C 31.945312 52.960938 31.742188 53.035156 31.582031 53.1875 C 31.417969 53.332031 31.34375 53.511719 31.34375 53.71875 L 31.34375 63.046875 C 31.34375 63.265625 31.425781 63.445312 31.582031 63.59375 C 31.742188 63.738281 31.945312 63.808594 32.195312 63.808594 C 32.429688 63.808594 32.632812 63.734375 32.800781 63.59375 C 32.964844 63.445312 33.050781 63.265625 33.050781 63.046875 L 33.050781 59.808594 C 33.21875 59.988281 33.421875 60.152344 33.664062 60.3125 C 33.960938 60.507812 34.296875 60.660156 34.6875 60.78125 C 35.074219 60.898438 35.484375 60.960938 35.914062 60.960938 C 36.691406 60.960938 37.378906 60.785156 37.992188 60.441406 C 38.605469 60.09375 39.089844 59.613281 39.453125 59 C 39.820312 58.386719 40 57.6875 40 56.894531 C 40 56.101562 39.820312 55.398438 39.453125 54.800781 C 39.097656 54.1875 38.605469 53.714844 37.984375 53.367188 Z M 38.019531 58.261719 C 37.78125 58.671875 37.472656 58.992188 37.074219 59.226562 C 36.675781 59.460938 36.210938 59.578125 35.679688 59.578125 C 35.132812 59.578125 34.660156 59.464844 34.257812 59.226562 C 33.851562 58.992188 33.535156 58.671875 33.3125 58.261719 C 33.085938 57.847656 32.96875 57.386719 32.96875 56.878906 C 32.96875 56.367188 33.085938 55.90625 33.3125 55.511719 C 33.542969 55.113281 33.851562 54.800781 34.257812 54.566406 C 34.660156 54.332031 35.132812 54.214844 35.679688 54.214844 C 36.210938 54.214844 36.675781 54.332031 37.074219 54.566406 C 37.472656 54.800781 37.789062 55.121094 38.019531 55.519531 C 38.253906 55.921875 38.371094 56.375 38.371094 56.878906 C 38.371094 57.386719 38.253906 57.847656 38.019531 58.261719 Z M 38.019531 58.261719 "/>
<path style=" stroke:none;fill-rule:nonzero;fill:rgb(93.72549%,1.568627%,4.313725%);fill-opacity:1;" d="M 48.0625 52.921875 C 47.714844 52.914062 47.457031 53.066406 47.296875 53.394531 L 44.78125 58.519531 L 42.234375 53.375 C 42.164062 53.214844 42.050781 53.09375 41.902344 53.011719 C 41.746094 52.933594 41.585938 52.894531 41.417969 52.894531 C 41.152344 52.894531 40.953125 52.964844 40.796875 53.121094 C 40.640625 53.265625 40.566406 53.421875 40.566406 53.566406 C 40.566406 53.652344 40.582031 53.734375 40.601562 53.800781 C 40.621094 53.867188 40.648438 53.914062 40.667969 53.953125 L 43.890625 60.328125 C 43.980469 60.492188 44.105469 60.621094 44.273438 60.707031 C 44.4375 60.792969 44.605469 60.828125 44.78125 60.808594 C 45.125 60.785156 45.367188 60.625 45.515625 60.328125 L 48.75 53.953125 C 48.785156 53.894531 48.8125 53.832031 48.839844 53.765625 C 48.859375 53.699219 48.871094 53.640625 48.871094 53.578125 C 48.871094 53.378906 48.800781 53.21875 48.644531 53.09375 C 48.480469 52.980469 48.285156 52.921875 48.0625 52.921875 Z M 48.0625 52.921875 "/>
<path style=" stroke:none;fill-rule:nonzero;fill:rgb(93.72549%,1.568627%,4.313725%);fill-opacity:1;" d="M 50.800781 50.339844 C 50.484375 50.339844 50.242188 50.386719 50.085938 50.488281 C 49.925781 50.585938 49.851562 50.761719 49.851562 51.007812 L 49.851562 51.246094 C 49.851562 51.492188 49.925781 51.671875 50.074219 51.773438 C 50.222656 51.878906 50.457031 51.925781 50.789062 51.925781 C 51.132812 51.925781 51.375 51.878906 51.527344 51.78125 C 51.683594 51.679688 51.757812 51.5 51.757812 51.246094 L 51.757812 51.007812 C 51.757812 50.765625 51.683594 50.601562 51.535156 50.492188 C 51.386719 50.394531 51.144531 50.339844 50.800781 50.339844 Z M 50.800781 50.339844 "/>
<path style=" stroke:none;fill-rule:nonzero;fill:rgb(93.72549%,1.568627%,4.313725%);fill-opacity:1;" d="M 50.800781 52.921875 C 50.566406 52.921875 50.363281 52.992188 50.195312 53.132812 C 50.03125 53.28125 49.945312 53.460938 49.945312 53.679688 L 49.945312 60.054688 C 49.945312 60.273438 50.027344 60.453125 50.195312 60.601562 C 50.355469 60.746094 50.558594 60.8125 50.800781 60.8125 C 51.050781 60.8125 51.253906 60.738281 51.414062 60.601562 C 51.578125 60.453125 51.652344 60.273438 51.652344 60.054688 L 51.652344 53.679688 C 51.652344 53.460938 51.570312 53.28125 51.414062 53.132812 C 51.257812 52.992188 51.058594 52.921875 50.800781 52.921875 Z M 50.800781 52.921875 "/>
<path style=" stroke:none;fill-rule:nonzero;fill:rgb(93.72549%,1.568627%,4.313725%);fill-opacity:1;" d="M 60.832031 54.414062 C 60.65625 53.921875 60.347656 53.527344 59.902344 53.238281 C 59.457031 52.945312 58.835938 52.800781 58.027344 52.800781 C 57.628906 52.800781 57.253906 52.859375 56.902344 52.972656 C 56.550781 53.085938 56.234375 53.238281 55.945312 53.433594 C 55.660156 53.625 55.417969 53.832031 55.222656 54.058594 C 55.183594 54.105469 55.148438 54.160156 55.117188 54.207031 L 55.117188 53.738281 C 55.117188 53.519531 55.035156 53.339844 54.867188 53.191406 C 54.703125 53.046875 54.503906 52.980469 54.257812 52.980469 C 54.011719 52.980469 53.808594 53.054688 53.644531 53.191406 C 53.484375 53.339844 53.410156 53.519531 53.410156 53.738281 L 53.410156 60.054688 C 53.410156 60.273438 53.492188 60.453125 53.644531 60.601562 C 53.808594 60.746094 54.011719 60.8125 54.257812 60.8125 C 54.496094 60.8125 54.699219 60.738281 54.867188 60.601562 C 55.027344 60.453125 55.117188 60.273438 55.117188 60.054688 L 55.117188 56.074219 C 55.117188 55.714844 55.21875 55.394531 55.414062 55.113281 C 55.609375 54.832031 55.882812 54.601562 56.242188 54.425781 C 56.59375 54.253906 57.003906 54.167969 57.46875 54.167969 C 57.96875 54.167969 58.359375 54.253906 58.636719 54.425781 C 58.910156 54.601562 59.105469 54.828125 59.222656 55.113281 C 59.335938 55.394531 59.390625 55.714844 59.390625 56.074219 L 59.390625 60.054688 C 59.390625 60.273438 59.472656 60.453125 59.625 60.601562 C 59.789062 60.746094 59.988281 60.8125 60.238281 60.8125 C 60.476562 60.8125 60.675781 60.738281 60.847656 60.601562 C 61.007812 60.453125 61.09375 60.273438 61.09375 60.054688 L 61.09375 56.058594 C 61.09375 55.460938 61.007812 54.90625 60.832031 54.414062 Z M 60.832031 54.414062 "/>
<path style=" stroke:none;fill-rule:nonzero;fill:rgb(0%,0%,0%);fill-opacity:1;" d="M 36.003906 40.933594 C 28.480469 40.933594 22.363281 34.878906 22.363281 27.445312 L 22.363281 13.960938 L 36.003906 13.960938 C 43.527344 13.960938 49.640625 20.011719 49.640625 27.445312 C 49.640625 34.878906 43.519531 40.933594 36.003906 40.933594 Z M 24.515625 16.085938 L 24.515625 27.445312 C 24.515625 33.714844 29.667969 38.808594 36.003906 38.808594 C 42.339844 38.808594 47.492188 33.714844 47.492188 27.445312 C 47.492188 21.179688 42.332031 16.085938 36.003906 16.085938 Z M 24.515625 16.085938 "/>
<path style=" stroke:none;fill-rule:nonzero;fill:rgb(0%,0%,0%);fill-opacity:1;" d="M 36.003906 46.726562 C 25.265625 46.726562 16.527344 38.085938 16.527344 27.464844 L 16.527344 8.207031 L 36.003906 8.207031 C 46.742188 8.207031 55.480469 16.847656 55.480469 27.464844 C 55.472656 38.085938 46.734375 46.726562 36.003906 46.726562 Z M 18.675781 10.332031 L 18.675781 27.464844 C 18.675781 36.914062 26.449219 44.601562 36.003906 44.601562 C 45.554688 44.601562 53.328125 36.914062 53.328125 27.464844 C 53.328125 18.019531 45.554688 10.332031 36.003906 10.332031 Z M 18.675781 10.332031 "/>
</g>
</svg>
